# xmcd
#
# Track frame offsets:
#	150
#	18666
#	38957
#	57787
#	75044
#	95636
#	115622
#	134074
#	154792
#	173900
#	192289
#	211373
#	242743
#
# Disc length: 3305 seconds
#
# Revision: 0
# Processed by: cddbd v1.5.2PL0 Copyright (c) Steve Scherf et al.
# Submitted via: dBpowerAMP V4.0
#
DISCID=a90ce70d
DTITLE=Mariani - A Vitória Alcançarás
DYEAR=2008
DGENRE=Católico
TTITLE0=01 - Não Temerei
TTITLE1=02 - Asas da coragem
TTITLE2=03 - Apaixonada por Jesus
TTITLE3=04 - A vitória Alncançarás
TTITLE4=05 - Bem perto vou estar
TTITLE5=06 - Lembra-te Senhor
TTITLE6=07 - Minha cura
TTITLE7=08 - Além das nuvens
TTITLE8=09 - Imagens de um quadro
TTITLE9=10 - Minha canção
TTITLE10=11 - Querer mudar
TTITLE11=12 - Vou assumir minha missão
TTITLE12=DATA
EXTD=
EXTT0=
EXTT1=
EXTT2=
EXTT3=
EXTT4=
EXTT5=
EXTT6=
EXTT7=
EXTT8=
EXTT9=
EXTT10=
EXTT11=
EXTT12=
PLAYORDER=
